<svg width="28" height="28" viewBox="0 0 28 28" fill="none" xmlns="http://www.w3.org/2000/svg">
<path d="M13.3 2.74169L7.2917 8.75002C7.05837 8.98336 7.05837 9.34502 7.2917 9.57836L9.31005 11.5967C9.54338 11.83 9.90504 11.83 10.1384 11.5967L16.1467 5.58836C16.38 5.35502 16.38 4.99336 16.1467 4.76002L14.1283 2.74169C13.895 2.52002 13.5334 2.52002 13.3 2.74169Z" fill="#F1FCF3"/>
<path d="M17.85 7.3033L7.2917 17.8616C7.05837 18.095 7.05837 18.4566 7.2917 18.69L9.31005 20.7083C9.54338 20.9416 9.90504 20.9416 10.1384 20.7083L20.6967 10.15C20.93 9.91663 20.93 9.55496 20.6967 9.32163L18.6784 7.3033C18.4567 7.06996 18.0834 7.06996 17.85 7.3033Z" fill="#F1FCF3"/>
<path d="M22.4115 11.8533L11.8532 22.4117C11.6199 22.645 11.6199 23.0067 11.8532 23.24L13.8716 25.2583C14.1049 25.4917 14.4666 25.4917 14.6999 25.2583L25.2582 14.7C25.4915 14.4667 25.4915 14.105 25.2582 13.8717L23.2399 11.8533C23.0066 11.62 22.6332 11.62 22.4115 11.8533Z" fill="#F1FCF3"/>
<path d="M4.77172 16.1467L2.75337 14.1284C2.52004 13.895 2.52004 13.5334 2.75337 13.3L4.77172 11.2817C5.00505 11.0484 5.36671 11.0484 5.60004 11.2817L7.61838 13.3C7.85172 13.5334 7.85172 13.895 7.61838 14.1284L5.60004 16.1467C5.36671 16.38 4.99338 16.38 4.77172 16.1467Z" fill="#F1FCF3"/>
</svg>
