<svg width="28" height="28" viewBox="0 0 28 28" fill="none" xmlns="http://www.w3.org/2000/svg">
<path d="M2.625 2.625C2.14175 2.625 1.75 3.01675 1.75 3.5C1.75 3.98325 2.14175 4.375 2.625 4.375H4.24163C4.43985 4.375 4.61329 4.50826 4.66436 4.69977L7.64839 15.8899C5.76541 16.3783 4.375 18.0893 4.375 20.125C4.375 20.6082 4.76675 21 5.25 21H23.625C24.1082 21 24.5 20.6082 24.5 20.125C24.5 19.6418 24.1082 19.25 23.625 19.25H6.27437C6.63472 18.2305 7.60706 17.5 8.75 17.5H21.838C22.1726 17.5 22.4779 17.3091 22.6245 17.0083C23.9489 14.2905 25.1047 11.4754 26.0782 8.57647C26.1556 8.34583 26.1335 8.09336 26.0172 7.87966C25.9009 7.66596 25.7009 7.51033 25.4652 7.45013C19.8397 6.01349 13.9459 5.25 7.875 5.25C7.45753 5.25 7.0409 5.25361 6.62513 5.2608L6.35527 4.24886C6.09992 3.29127 5.23267 2.625 4.24163 2.625H2.625Z" fill="#F1FCF3"/>
<path d="M4.375 23.625C4.375 22.6585 5.1585 21.875 6.125 21.875C7.0915 21.875 7.875 22.6585 7.875 23.625C7.875 24.5915 7.0915 25.375 6.125 25.375C5.1585 25.375 4.375 24.5915 4.375 23.625Z" fill="#F1FCF3"/>
<path d="M19.25 23.625C19.25 22.6585 20.0335 21.875 21 21.875C21.9665 21.875 22.75 22.6585 22.75 23.625C22.75 24.5915 21.9665 25.375 21 25.375C20.0335 25.375 19.25 24.5915 19.25 23.625Z" fill="#F1FCF3"/>
</svg>
