<svg width="28" height="28" viewBox="0 0 28 28" fill="none" xmlns="http://www.w3.org/2000/svg">
<path d="M16.3334 3.40671V13.1017C16.3334 14.2917 15.365 15.26 14.175 15.26H3.50004C2.85837 15.26 2.33337 14.735 2.33337 14.0934V6.63837C2.33337 4.25837 4.25837 2.33337 6.63837 2.33337H15.2484C15.855 2.33337 16.3334 2.81171 16.3334 3.40671Z" fill="#F1FCF3"/>
<path d="M25.0834 18.0834C25.41 18.0834 25.6667 18.34 25.6667 18.6667V19.8334C25.6667 21.77 24.1034 23.3334 22.1667 23.3334C22.1667 21.4084 20.5917 19.8334 18.6667 19.8334C16.7417 19.8334 15.1667 21.4084 15.1667 23.3334H12.8334C12.8334 21.4084 11.2584 19.8334 9.33337 19.8334C7.40837 19.8334 5.83337 21.4084 5.83337 23.3334C3.89671 23.3334 2.33337 21.77 2.33337 19.8334V17.5C2.33337 16.8584 2.85837 16.3334 3.50004 16.3334H14.5834C16.1934 16.3334 17.5 15.0267 17.5 13.4167V7.00004C17.5 6.35837 18.025 5.83337 18.6667 5.83337H19.6467C20.4867 5.83337 21.2567 6.28837 21.6767 7.01171L22.4234 8.31837C22.5284 8.50504 22.3884 8.75004 22.1667 8.75004C20.5567 8.75004 19.25 10.0567 19.25 11.6667V15.1667C19.25 16.7767 20.5567 18.0834 22.1667 18.0834H25.0834Z" fill="#F1FCF3"/>
<path d="M9.33333 25.6667C10.622 25.6667 11.6667 24.622 11.6667 23.3333C11.6667 22.0447 10.622 21 9.33333 21C8.04467 21 7 22.0447 7 23.3333C7 24.622 8.04467 25.6667 9.33333 25.6667Z" fill="#F1FCF3"/>
<path d="M18.6667 25.6667C19.9554 25.6667 21 24.622 21 23.3333C21 22.0447 19.9554 21 18.6667 21C17.378 21 16.3334 22.0447 16.3334 23.3333C16.3334 24.622 17.378 25.6667 18.6667 25.6667Z" fill="#F1FCF3"/>
<path d="M25.6667 14.6183V16.3333H22.1667C21.525 16.3333 21 15.8083 21 15.1667V11.6667C21 11.025 21.525 10.5 22.1667 10.5H23.6717L25.3633 13.4633C25.5617 13.8133 25.6667 14.21 25.6667 14.6183Z" fill="#F1FCF3"/>
</svg>
