<svg width="40" height="40" viewBox="0 0 40 40" fill="none" xmlns="http://www.w3.org/2000/svg">
<path d="M25.1955 31.3799C25.5872 31.1991 26.0473 31.5352 25.9611 31.958L25.8168 32.6667C25.0001 35.8334 23.1668 36.6667 20.9168 36.6667H19.1001C16.8501 36.6667 15.0001 35.8334 14.2001 32.65L14.0607 31.9396C13.9782 31.5194 14.4329 31.1879 14.8218 31.3671C16.4333 32.1097 18.188 32.5 20.0001 32.5C21.8204 32.5 23.5837 32.1235 25.1955 31.3799Z" fill="#131313"/>
<path d="M25.9691 8.06151C26.0579 8.48621 25.5942 8.82519 25.2011 8.6416C23.6242 7.90523 21.8628 7.50004 20.0002 7.50004C18.1464 7.50004 16.3945 7.9073 14.819 8.63794C14.428 8.81928 13.9692 8.48375 14.0553 8.06138L14.2002 7.35004C15.0002 4.16671 16.8502 3.33337 19.1002 3.33337H20.9168C23.1668 3.33337 25.0002 4.16671 25.8168 7.33337L25.9691 8.06151Z" fill="#131313"/>
<path d="M19.9998 9.16663C14.0165 9.16663 9.1665 14.0166 9.1665 20C9.1665 23.5 10.8165 26.6 13.3832 28.5833H13.3998C15.2332 30 17.5165 30.8333 19.9998 30.8333C22.5165 30.8333 24.8165 29.9833 26.6498 28.55H26.6665C29.1998 26.5666 30.8332 23.4666 30.8332 20C30.8332 14.0166 25.9832 9.16663 19.9998 9.16663ZM23.2165 23.9666C22.9665 24.2166 22.6498 24.3333 22.3332 24.3333C22.0165 24.3333 21.6998 24.2166 21.4498 23.9666L19.1165 21.6333C18.8832 21.4 18.7498 21.0833 18.7498 20.75V16.1C18.7498 15.4166 19.3165 14.85 19.9998 14.85C20.6832 14.85 21.2498 15.4166 21.2498 16.1V20.2333L23.2165 22.2C23.6998 22.6833 23.6998 23.4833 23.2165 23.9666Z" fill="#131313"/>
</svg>
