<svg width="40" height="40" viewBox="0 0 40 40" fill="none" xmlns="http://www.w3.org/2000/svg">
<path d="M35.5002 20.3833H29.7002C28.0668 20.3833 26.6168 21.2833 25.8835 22.75L24.4835 25.5166C24.1502 26.1833 23.4835 26.6 22.7502 26.6H17.2835C16.7668 26.6 16.0335 26.4833 15.5502 25.5166L14.1502 22.7666C13.4168 21.3166 11.9502 20.4 10.3335 20.4H4.50016C3.85016 20.4 3.3335 20.9166 3.3335 21.5666V27C3.3335 33.05 6.96683 36.6666 13.0335 36.6666H27.0002C32.7168 36.6666 36.2335 33.5333 36.6668 27.9666V21.55C36.6668 20.9166 36.1502 20.3833 35.5002 20.3833Z" fill="#131313"/>
<path d="M36.6668 13.0167V18.0834C36.3002 17.95 35.9002 17.8834 35.5002 17.8834H29.7002C27.1168 17.8834 24.8002 19.3167 23.6502 21.6167L22.4002 24.0834H17.6335L16.3835 21.6334C15.2335 19.3167 12.9168 17.8834 10.3335 17.8834H4.50016C4.10016 17.8834 3.70016 17.95 3.3335 18.0834V13.0167C3.3335 6.95004 6.95016 3.33337 13.0168 3.33337H26.9835C33.0502 3.33337 36.6668 6.95004 36.6668 13.0167Z" fill="#131313"/>
</svg>
