<svg width="23" height="22" viewBox="0 0 23 22" fill="none" xmlns="http://www.w3.org/2000/svg">
<path d="M14.9634 1.93555H7.32682C4.00973 1.93555 2.03223 3.91305 2.03223 7.23014V14.8576C2.03223 18.1839 4.00973 20.1614 7.32682 20.1614H14.9543C18.2714 20.1614 20.2489 18.1839 20.2489 14.8668V7.23014C20.258 3.91305 18.2805 1.93555 14.9634 1.93555ZM11.1451 14.5843C9.19497 14.5843 7.60932 12.9986 7.60932 11.0485C7.60932 9.09829 9.19497 7.51264 11.1451 7.51264C13.0953 7.51264 14.6809 9.09829 14.6809 11.0485C14.6809 12.9986 13.0953 14.5843 11.1451 14.5843ZM16.54 6.38264C16.4944 6.492 16.4306 6.59224 16.3486 6.68337C16.2575 6.76539 16.1572 6.82918 16.0479 6.87474C15.9385 6.92031 15.82 6.94764 15.7016 6.94764C15.4555 6.94764 15.2277 6.85651 15.0546 6.68337C14.9725 6.59224 14.9088 6.492 14.8632 6.38264C14.8176 6.27329 14.7903 6.15482 14.7903 6.03635C14.7903 5.91789 14.8176 5.79942 14.8632 5.69006C14.9088 5.5716 14.9725 5.48047 15.0546 5.38934C15.2642 5.17974 15.5831 5.0795 15.8747 5.14329C15.9385 5.1524 15.9932 5.17063 16.0479 5.19797C16.1025 5.21619 16.1572 5.24353 16.2119 5.27998C16.2575 5.30732 16.303 5.35289 16.3486 5.38934C16.4306 5.48047 16.4944 5.5716 16.54 5.69006C16.5855 5.79942 16.6129 5.91789 16.6129 6.03635C16.6129 6.15482 16.5855 6.27329 16.54 6.38264Z" fill="white"/>
</svg>
