<svg width="291" height="184" viewBox="0 0 291 184" fill="none" xmlns="http://www.w3.org/2000/svg">
<rect width="291" height="183.912" rx="16" fill="#E6A308"/>
<path d="M30.189 40.4558V38.532L37.3472 28.8738V28.7957H30.355V26.364H40.8726V28.2781L33.7437 37.946V38.0144H41.0679V40.4558H30.189ZM51.8448 38.0144V40.4558H42.5089V26.364H51.8448V28.7957H45.4581V32.1941H51.4835V34.4597H45.4581V38.0144H51.8448ZM56.3229 28.6687V33.1609H58.862C60.3464 33.1609 61.2155 32.3113 61.2155 30.9148C61.2155 29.5476 60.2976 28.6687 58.8327 28.6687H56.3229ZM56.3229 35.2996V40.4558H53.3737V26.364H59.1452C62.3874 26.364 64.2429 28.073 64.2429 30.8562C64.2429 32.6628 63.3054 34.2253 61.6843 34.8601L64.653 40.4558H61.3132L58.6862 35.2996H56.3229ZM71.9437 26.1199C76.1136 26.1199 78.7405 28.9226 78.7405 33.4148C78.7405 37.8972 76.1136 40.7 71.9437 40.7C67.764 40.7 65.1468 37.8972 65.1468 33.4148C65.1468 28.9226 67.764 26.1199 71.9437 26.1199ZM71.9437 28.5808C69.639 28.5808 68.1546 30.4558 68.1546 33.4148C68.1546 36.364 69.6292 38.2292 71.9437 38.2292C74.2483 38.2292 75.7229 36.364 75.7229 33.4148C75.7229 30.4558 74.2483 28.5808 71.9437 28.5808ZM42.7378 61.4558H39.7886V55.5183H33.4409V61.4558H30.4917V47.364H33.4409V53.0867H39.7886V47.364H42.7378V61.4558ZM47.4308 47.364V56.1824C47.4308 57.989 48.4952 59.1707 50.3897 59.1707C52.2745 59.1707 53.339 57.989 53.339 56.1824V47.364H56.2882V56.4753C56.2882 59.5808 53.9933 61.7 50.3897 61.7C46.7765 61.7 44.4815 59.5808 44.4815 56.4753V47.364H47.4308ZM60.864 61.4558H58.0417V47.364H60.5026L67.0847 56.5437H67.1628V47.364H69.9851V61.4558H67.5437L60.9519 52.2273H60.864V61.4558ZM84.3362 55.5378C84.3362 59.3757 82.012 61.7 78.0862 61.7C73.8772 61.7 71.2991 58.946 71.2991 54.366C71.2991 49.8542 73.8772 47.1199 78.0179 47.1199C81.3089 47.1199 83.7894 49.0632 84.2093 51.9148H81.2503C80.8206 50.4402 79.6194 49.5613 78.0276 49.5613C75.7034 49.5613 74.3069 51.3289 74.3069 54.3269C74.3069 57.3835 75.7913 59.2488 78.1351 59.2488C80.0589 59.2488 81.3968 58.0671 81.4554 56.3191L81.4651 56.0945H78.3987V53.946H84.3362V55.5378ZM95.0253 59.0144V61.4558H85.6894V47.364H95.0253V49.7957H88.6386V53.1941H94.664V55.4597H88.6386V59.0144H95.0253ZM99.5034 49.6687V54.1609H102.042C103.527 54.1609 104.396 53.3113 104.396 51.9148C104.396 50.5476 103.478 49.6687 102.013 49.6687H99.5034ZM99.5034 56.2996V61.4558H96.5542V47.364H102.326C105.568 47.364 107.423 49.073 107.423 51.8562C107.423 53.6628 106.486 55.2253 104.865 55.8601L107.833 61.4558H104.494L101.867 56.2996H99.5034Z" fill="white"/>
<path d="M173.625 115.924H171.173C170.584 109.522 167.625 103.572 162.875 99.2391C158.126 94.9065 151.929 92.5046 145.5 92.5046C139.071 92.5046 132.874 94.9065 128.125 99.2391C123.375 103.572 120.416 109.522 119.827 115.924H117.375C116.753 115.924 116.157 116.171 115.718 116.611C115.278 117.05 115.031 117.646 115.031 118.268C115.042 123.842 116.575 129.307 119.467 134.072C122.359 138.837 126.498 142.721 131.438 145.303V146.393C131.438 147.636 131.931 148.828 132.81 149.708C133.69 150.587 134.882 151.08 136.125 151.08H154.875C156.118 151.08 157.31 150.587 158.19 149.708C159.069 148.828 159.562 147.636 159.562 146.393V145.303C164.502 142.721 168.641 138.837 171.533 134.072C174.425 129.307 175.958 123.842 175.969 118.268C175.969 117.646 175.722 117.05 175.282 116.611C174.843 116.171 174.247 115.924 173.625 115.924ZM158.824 101.929C159.361 102.369 159.876 102.832 160.368 103.321C154.129 105.515 148.973 110.026 145.969 115.918H137.326C138.791 111.812 141.488 108.258 145.048 105.743C148.609 103.227 152.859 101.871 157.219 101.862C157.755 101.862 158.291 101.888 158.824 101.929ZM151.395 115.924C154.236 111.661 158.535 108.581 163.485 107.261C165.104 109.894 166.119 112.852 166.459 115.924H151.395ZM145.5 97.1742C147.381 97.1759 149.253 97.4291 151.066 97.9271C146.65 99.0228 142.6 101.263 139.325 104.423C136.05 107.583 133.666 111.55 132.413 115.924H124.541C125.122 110.77 127.58 106.011 131.445 102.553C135.311 99.095 140.314 97.1804 145.5 97.1742Z" fill="white"/>
</svg>
