<svg width="291" height="184" viewBox="0 0 291 184" fill="none" xmlns="http://www.w3.org/2000/svg">
<rect width="291" height="183.91" rx="16" fill="#CA8802"/>
<path d="M33.4409 22.668V27.1602H35.98C37.4644 27.1602 38.3335 26.3105 38.3335 24.9141C38.3335 23.5469 37.4155 22.668 35.9507 22.668H33.4409ZM33.4409 29.2988V34.4551H30.4917V20.3633H36.2632C39.5054 20.3633 41.3608 22.0723 41.3608 24.8555C41.3608 26.6621 40.4233 28.2246 38.8022 28.8594L41.771 34.4551H38.4312L35.8042 29.2988H33.4409ZM52.0401 32.0137V34.4551H42.7042V20.3633H52.0401V22.7949H45.6534V26.1934H51.6788V28.459H45.6534V32.0137H52.0401ZM53.0417 30.4414H55.8835C56.0202 31.6035 57.2312 32.3652 58.7937 32.3652C60.3659 32.3652 61.4401 31.6133 61.4401 30.5781C61.4401 29.6602 60.7663 29.1523 59.0671 28.7715L57.2312 28.3711C54.6335 27.8145 53.3542 26.4961 53.3542 24.4355C53.3542 21.8379 55.6003 20.1191 58.7448 20.1191C62.0261 20.1191 64.0866 21.8086 64.1354 24.3574H61.3718C61.2741 23.166 60.2292 22.4434 58.7546 22.4434C57.2995 22.4434 56.3229 23.1367 56.3229 24.1816C56.3229 25.0508 57.0065 25.5391 58.6276 25.9102L60.3366 26.2715C63.1589 26.877 64.3894 28.0879 64.3894 30.2363C64.3894 32.9707 62.1726 34.6992 58.6765 34.6992C55.2878 34.6992 53.1296 33.0879 53.0417 30.4414ZM65.6058 20.3633H71.3382C74.2288 20.3633 76.221 22.2871 76.221 25.1875C76.221 28.0781 74.1604 30.0117 71.1917 30.0117H68.555V34.4551H65.6058V20.3633ZM68.555 22.6973V27.707H70.5472C72.2366 27.707 73.2229 26.8086 73.2229 25.1973C73.2229 23.5957 72.2464 22.6973 70.5569 22.6973H68.555ZM83.7265 20.1191C87.8964 20.1191 90.5233 22.9219 90.5233 27.4141C90.5233 31.8965 87.8964 34.6992 83.7265 34.6992C79.5468 34.6992 76.9296 31.8965 76.9296 27.4141C76.9296 22.9219 79.5468 20.1191 83.7265 20.1191ZM83.7265 22.5801C81.4218 22.5801 79.9374 24.4551 79.9374 27.4141C79.9374 30.3633 81.412 32.2285 83.7265 32.2285C86.0312 32.2285 87.5058 30.3633 87.5058 27.4141C87.5058 24.4551 86.0312 22.5801 83.7265 22.5801ZM94.6499 34.4551H91.8276V20.3633H94.2886L100.871 29.543H100.949V20.3633H103.771V34.4551H101.33L94.7378 25.2266H94.6499V34.4551ZM104.997 30.4414H107.839C107.976 31.6035 109.187 32.3652 110.749 32.3652C112.321 32.3652 113.396 31.6133 113.396 30.5781C113.396 29.6602 112.722 29.1523 111.023 28.7715L109.187 28.3711C106.589 27.8145 105.31 26.4961 105.31 24.4355C105.31 21.8379 107.556 20.1191 110.7 20.1191C113.982 20.1191 116.042 21.8086 116.091 24.3574H113.327C113.23 23.166 112.185 22.4434 110.71 22.4434C109.255 22.4434 108.278 23.1367 108.278 24.1816C108.278 25.0508 108.962 25.5391 110.583 25.9102L112.292 26.2715C115.114 26.877 116.345 28.0879 116.345 30.2363C116.345 32.9707 114.128 34.6992 110.632 34.6992C107.243 34.6992 105.085 33.0879 104.997 30.4414ZM120.51 34.4551H117.561V20.3633H120.51V34.4551ZM128.494 34.4551H122.254V20.3633H128.387C131.033 20.3633 132.694 21.7207 132.694 23.8789C132.694 25.4219 131.541 26.7109 130.047 26.9355V27.0137C131.961 27.1602 133.367 28.5566 133.367 30.4219C133.367 32.9023 131.502 34.4551 128.494 34.4551ZM125.203 22.5605V26.2227H127.323C128.895 26.2227 129.793 25.5293 129.793 24.3379C129.793 23.2051 129.002 22.5605 127.625 22.5605H125.203ZM125.203 32.2578H127.742C129.442 32.2578 130.36 31.5352 130.36 30.1875C130.36 28.8691 129.412 28.166 127.674 28.166H125.203V32.2578ZM143.558 32.0137V34.4551H134.447V20.3633H137.396V32.0137H143.558ZM154.042 32.0137V34.4551H144.707V20.3633H154.042V22.7949H147.656V26.1934H153.681V28.459H147.656V32.0137H154.042ZM36.7222 55.6992C32.6206 55.6992 30.0522 52.9551 30.0522 48.4043C30.0522 43.8633 32.6401 41.1191 36.7222 41.1191C40.1108 41.1191 42.689 43.2676 42.9136 46.4219H40.0425C39.769 44.6934 38.4409 43.5605 36.7222 43.5605C34.4956 43.5605 33.0601 45.4258 33.0601 48.3945C33.0601 51.4023 34.4761 53.2578 36.7319 53.2578C38.48 53.2578 39.7397 52.2324 40.0522 50.5625H42.9233C42.5913 53.707 40.1792 55.6992 36.7222 55.6992ZM50.5069 41.1191C54.6769 41.1191 57.3038 43.9219 57.3038 48.4141C57.3038 52.8965 54.6769 55.6992 50.5069 55.6992C46.3272 55.6992 43.7101 52.8965 43.7101 48.4141C43.7101 43.9219 46.3272 41.1191 50.5069 41.1191ZM50.5069 43.5801C48.2022 43.5801 46.7179 45.4551 46.7179 48.4141C46.7179 51.3633 48.1925 53.2285 50.5069 53.2285C52.8116 53.2285 54.2862 51.3633 54.2862 48.4141C54.2862 45.4551 52.8116 43.5801 50.5069 43.5801ZM61.4304 55.4551H58.6081V41.3633H61.069L67.6511 50.543H67.7292V41.3633H70.5515V55.4551H68.1101L61.5183 46.2266H61.4304V55.4551ZM71.7776 51.4414H74.6194C74.7562 52.6035 75.9671 53.3652 77.5296 53.3652C79.1019 53.3652 80.1761 52.6133 80.1761 51.5781C80.1761 50.6602 79.5022 50.1523 77.803 49.7715L75.9671 49.3711C73.3694 48.8145 72.0901 47.4961 72.0901 45.4355C72.0901 42.8379 74.3362 41.1191 77.4808 41.1191C80.762 41.1191 82.8226 42.8086 82.8714 45.3574H80.1077C80.0101 44.166 78.9651 43.4434 77.4905 43.4434C76.0354 43.4434 75.0589 44.1367 75.0589 45.1816C75.0589 46.0508 75.7425 46.5391 77.3636 46.9102L79.0726 47.2715C81.8948 47.877 83.1253 49.0879 83.1253 51.2363C83.1253 53.9707 80.9085 55.6992 77.4124 55.6992C74.0237 55.6992 71.8655 54.0879 71.7776 51.4414ZM87.2909 41.3633V50.1816C87.2909 51.9883 88.3554 53.1699 90.2499 53.1699C92.1347 53.1699 93.1991 51.9883 93.1991 50.1816V41.3633H96.1483V50.4746C96.1483 53.5801 93.8534 55.6992 90.2499 55.6992C86.6366 55.6992 84.3417 53.5801 84.3417 50.4746V41.3633H87.2909ZM112.824 55.4551H110.197V45.9434H110.119L106.291 55.3184H104.435L100.607 45.9434H100.529V55.4551H97.9019V41.3633H101.32L105.324 51.3535H105.402L109.406 41.3633H112.824V55.4551ZM114.567 41.3633H120.3C123.191 41.3633 125.183 43.2871 125.183 46.1875C125.183 49.0781 123.122 51.0117 120.153 51.0117H117.517V55.4551H114.567V41.3633ZM117.517 43.6973V48.707H119.509C121.198 48.707 122.185 47.8086 122.185 46.1973C122.185 44.5957 121.208 43.6973 119.519 43.6973H117.517ZM132.649 55.4551H129.7V43.7949H125.628V41.3633H136.731V43.7949H132.649V55.4551ZM140.711 55.4551H137.762V41.3633H140.711V55.4551ZM148.812 41.1191C152.982 41.1191 155.609 43.9219 155.609 48.4141C155.609 52.8965 152.982 55.6992 148.812 55.6992C144.633 55.6992 142.016 52.8965 142.016 48.4141C142.016 43.9219 144.633 41.1191 148.812 41.1191ZM148.812 43.5801C146.508 43.5801 145.023 45.4551 145.023 48.4141C145.023 51.3633 146.498 53.2285 148.812 53.2285C151.117 53.2285 152.592 51.3633 152.592 48.4141C152.592 45.4551 151.117 43.5801 148.812 43.5801ZM159.736 55.4551H156.914V41.3633H159.375L165.957 50.543H166.035V41.3633H168.857V55.4551H166.416L159.824 46.2266H159.736V55.4551ZM183.204 55.4551L182.13 52.0371H177.178L176.104 55.4551H173.077L177.969 41.3633H181.436L186.339 55.4551H183.204ZM179.62 44.0586L177.813 49.8301H181.495L179.688 44.0586H179.62ZM190.006 55.4551H187.184V41.3633H189.645L196.227 50.543H196.305V41.3633H199.127V55.4551H196.686L190.094 46.2266H190.006V55.4551ZM200.881 41.3633H206.262C210.49 41.3633 212.98 43.8828 212.98 48.3555C212.98 52.8281 210.49 55.4551 206.262 55.4551H200.881V41.3633ZM203.83 43.7949V53.0137H205.91C208.547 53.0137 209.973 51.4121 209.973 48.3652C209.973 45.416 208.508 43.7949 205.91 43.7949H203.83ZM30.4917 61.3633H36.2241C39.1147 61.3633 41.1069 63.2871 41.1069 66.1875C41.1069 69.0781 39.0464 71.0117 36.0776 71.0117H33.4409V75.4551H30.4917V61.3633ZM33.4409 63.6973V68.707H35.4331C37.1226 68.707 38.1089 67.8086 38.1089 66.1973C38.1089 64.5957 37.1323 63.6973 35.4429 63.6973H33.4409ZM45.2042 63.668V68.1602H47.7433C49.2276 68.1602 50.0968 67.3105 50.0968 65.9141C50.0968 64.5469 49.1788 63.668 47.714 63.668H45.2042ZM45.2042 70.2988V75.4551H42.255V61.3633H48.0265C51.2687 61.3633 53.1241 63.0723 53.1241 65.8555C53.1241 67.6621 52.1866 69.2246 50.5655 69.8594L53.5343 75.4551H50.1944L47.5675 70.2988H45.2042ZM60.8249 61.1191C64.9948 61.1191 67.6218 63.9219 67.6218 68.4141C67.6218 72.8965 64.9948 75.6992 60.8249 75.6992C56.6452 75.6992 54.028 72.8965 54.028 68.4141C54.028 63.9219 56.6452 61.1191 60.8249 61.1191ZM60.8249 63.5801C58.5202 63.5801 57.0358 65.4551 57.0358 68.4141C57.0358 71.3633 58.5104 73.2285 60.8249 73.2285C63.1296 73.2285 64.6042 71.3633 64.6042 68.4141C64.6042 65.4551 63.1296 63.5801 60.8249 63.5801ZM68.9261 61.3633H74.3069C78.5354 61.3633 81.0257 63.8828 81.0257 68.3555C81.0257 72.8281 78.5354 75.4551 74.3069 75.4551H68.9261V61.3633ZM71.8753 63.7949V73.0137H73.9554C76.5921 73.0137 78.0179 71.4121 78.0179 68.3652C78.0179 65.416 76.553 63.7949 73.9554 63.7949H71.8753ZM85.2792 61.3633V70.1816C85.2792 71.9883 86.3437 73.1699 88.2382 73.1699C90.1229 73.1699 91.1874 71.9883 91.1874 70.1816V61.3633H94.1366V70.4746C94.1366 73.5801 91.8417 75.6992 88.2382 75.6992C84.6249 75.6992 82.33 73.5801 82.33 70.4746V61.3633H85.2792ZM102.121 75.6992C98.019 75.6992 95.4507 72.9551 95.4507 68.4043C95.4507 63.8633 98.0386 61.1191 102.121 61.1191C105.509 61.1191 108.087 63.2676 108.312 66.4219H105.441C105.167 64.6934 103.839 63.5605 102.121 63.5605C99.894 63.5605 98.4585 65.4258 98.4585 68.3945C98.4585 71.4023 99.8745 73.2578 102.13 73.2578C103.878 73.2578 105.138 72.2324 105.451 70.5625H108.322C107.99 73.707 105.578 75.6992 102.121 75.6992ZM115.417 75.4551H112.468V63.7949H108.396V61.3633H119.499V63.7949H115.417V75.4551ZM123.479 75.4551H120.53V61.3633H123.479V75.4551ZM131.58 61.1191C135.75 61.1191 138.377 63.9219 138.377 68.4141C138.377 72.8965 135.75 75.6992 131.58 75.6992C127.401 75.6992 124.783 72.8965 124.783 68.4141C124.783 63.9219 127.401 61.1191 131.58 61.1191ZM131.58 63.5801C129.276 63.5801 127.791 65.4551 127.791 68.4141C127.791 71.3633 129.266 73.2285 131.58 73.2285C133.885 73.2285 135.36 71.3633 135.36 68.4141C135.36 65.4551 133.885 63.5801 131.58 63.5801ZM142.504 75.4551H139.682V61.3633H142.142L148.725 70.543H148.803V61.3633H151.625V75.4551H149.183L142.592 66.2266H142.504V75.4551Z" fill="white"/>
<path d="M180.656 128.955C180.656 132.2 179.694 135.372 177.891 138.07C176.089 140.769 173.526 142.872 170.528 144.114C167.53 145.355 164.231 145.68 161.049 145.047C157.866 144.414 154.943 142.851 152.648 140.557L152.552 140.454L134.988 120.62C133.344 118.995 131.255 117.893 128.986 117.452C126.717 117.01 124.367 117.251 122.234 118.142C120.101 119.033 118.279 120.535 116.997 122.459C115.716 124.383 115.032 126.643 115.032 128.955C115.032 131.267 115.716 133.527 116.997 135.451C118.279 137.375 120.101 138.878 122.234 139.769C124.367 140.66 126.717 140.9 128.986 140.459C131.255 140.018 133.344 138.915 134.988 137.29L137.484 134.472C137.896 134.005 138.477 133.722 139.098 133.684C139.719 133.646 140.33 133.856 140.796 134.268C141.262 134.68 141.546 135.261 141.584 135.882C141.622 136.503 141.412 137.114 141 137.58L138.454 140.454L138.357 140.557C136.063 142.851 133.139 144.413 129.957 145.046C126.774 145.679 123.476 145.354 120.478 144.112C117.48 142.87 114.918 140.768 113.115 138.07C111.313 135.372 110.351 132.2 110.351 128.955C110.351 125.71 111.313 122.538 113.115 119.84C114.918 117.142 117.48 115.04 120.478 113.798C123.476 112.556 126.774 112.231 129.957 112.864C133.139 113.497 136.063 115.059 138.357 117.353L138.454 117.456L156.017 137.29C157.662 138.915 159.75 140.018 162.019 140.459C164.289 140.9 166.638 140.66 168.771 139.769C170.905 138.878 172.727 137.375 174.008 135.451C175.29 133.527 175.974 131.267 175.974 128.955C175.974 126.643 175.29 124.383 174.008 122.459C172.727 120.535 170.905 119.033 168.771 118.142C166.638 117.251 164.289 117.01 162.019 117.452C159.75 117.893 157.662 118.995 156.017 120.62L153.521 123.438C153.109 123.905 152.529 124.188 151.907 124.226C151.286 124.264 150.675 124.054 150.209 123.642C149.743 123.23 149.46 122.649 149.422 122.028C149.383 121.407 149.593 120.796 150.006 120.33L152.552 117.456L152.648 117.353C154.943 115.059 157.866 113.496 161.049 112.863C164.231 112.23 167.53 112.555 170.528 113.797C173.526 115.038 176.089 117.141 177.891 119.84C179.694 122.538 180.656 125.71 180.656 128.955Z" fill="white"/>
</svg>
