<svg width="291" height="184" viewBox="0 0 291 184" fill="none" xmlns="http://www.w3.org/2000/svg">
<rect width="291" height="183.912" rx="16" fill="#E6002F"/>
<path d="M33.314 40.4558H30.4917V26.364H32.9526L39.5347 35.5437H39.6128V26.364H42.4351V40.4558H39.9937L33.4019 31.2273H33.314V40.4558ZM50.546 26.1199C54.7159 26.1199 57.3429 28.9226 57.3429 33.4148C57.3429 37.8972 54.7159 40.7 50.546 40.7C46.3663 40.7 43.7491 37.8972 43.7491 33.4148C43.7491 28.9226 46.3663 26.1199 50.546 26.1199ZM50.546 28.5808C48.2413 28.5808 46.7569 30.4558 46.7569 33.4148C46.7569 36.364 48.2315 38.2292 50.546 38.2292C52.8507 38.2292 54.3253 36.364 54.3253 33.4148C54.3253 30.4558 52.8507 28.5808 50.546 28.5808ZM30.4917 47.364H36.2241C39.1147 47.364 41.1069 49.2878 41.1069 52.1882C41.1069 55.0789 39.0464 57.0125 36.0776 57.0125H33.4409V61.4558H30.4917V47.364ZM33.4409 49.698V54.7078H35.4331C37.1226 54.7078 38.1089 53.8093 38.1089 52.198C38.1089 50.5964 37.1323 49.698 35.4429 49.698H33.4409ZM48.6124 47.1199C52.7823 47.1199 55.4093 49.9226 55.4093 54.4148C55.4093 58.8972 52.7823 61.7 48.6124 61.7C44.4327 61.7 41.8155 58.8972 41.8155 54.4148C41.8155 49.9226 44.4327 47.1199 48.6124 47.1199ZM48.6124 49.5808C46.3077 49.5808 44.8233 51.4558 44.8233 54.4148C44.8233 57.364 46.2979 59.2292 48.6124 59.2292C50.9171 59.2292 52.3917 57.364 52.3917 54.4148C52.3917 51.4558 50.9171 49.5808 48.6124 49.5808ZM63.6179 61.4558H60.0632L55.3269 47.364H58.6276L61.8503 58.4187H61.9187L65.1413 47.364H68.3542L63.6179 61.4558ZM78.5354 59.0144V61.4558H69.1995V47.364H78.5354V49.7957H72.1487V53.1941H78.1741V55.4597H72.1487V59.0144H78.5354ZM83.0136 49.6687V54.1609H85.5526C87.037 54.1609 87.9062 53.3113 87.9062 51.9148C87.9062 50.5476 86.9882 49.6687 85.5233 49.6687H83.0136ZM83.0136 56.2996V61.4558H80.0644V47.364H85.8358C89.078 47.364 90.9335 49.073 90.9335 51.8562C90.9335 53.6628 89.996 55.2253 88.3749 55.8601L91.3437 61.4558H88.0038L85.3769 56.2996H83.0136ZM98.5952 61.4558H95.646V49.7957H91.5737V47.364H102.677V49.7957H98.5952V61.4558ZM110.661 61.4558H107.712V56.1921L102.81 47.364H106.023L109.177 53.3796H109.245L112.409 47.364H115.573L110.661 56.1921V61.4558Z" fill="white"/>
<path d="M90.3301 97.9558C90.3301 94.4871 93.1113 91.7058 96.5801 91.7058C100.049 91.7058 102.83 94.4871 102.83 97.9558C102.83 101.425 100.049 104.206 96.5801 104.206C93.1113 104.206 90.3301 101.425 90.3301 97.9558ZM102.83 151.081V135.456H106.299C108.424 135.456 109.924 133.362 109.268 131.331L102.705 111.612C102.287 110.367 101.489 109.285 100.424 108.517C99.3594 107.749 98.0806 107.334 96.7676 107.331H96.3926C95.0785 107.33 93.7974 107.743 92.7315 108.511C91.6656 109.28 90.869 110.365 90.4551 111.612L87.7676 119.675C91.1426 121.55 93.4551 125.081 93.4551 129.206V154.206H99.7051C101.424 154.206 102.83 152.8 102.83 151.081ZM79.3926 121.393C81.9863 121.393 84.0801 119.3 84.0801 116.706C84.0801 114.112 81.9863 112.018 79.3926 112.018C76.7988 112.018 74.7051 114.112 74.7051 116.706C74.7051 119.3 76.7988 121.393 79.3926 121.393ZM57.5176 104.206C60.9863 104.206 63.7676 101.425 63.7676 97.9558C63.7676 94.4871 60.9863 91.7058 57.5176 91.7058C54.0488 91.7058 51.2676 94.4871 51.2676 97.9558C51.2676 101.425 54.0488 104.206 57.5176 104.206ZM63.7676 151.081V132.331H65.3301C67.0488 132.331 68.4551 130.925 68.4551 129.206V113.581C68.4551 110.143 65.6426 107.331 62.2051 107.331H52.8301C49.3926 107.331 46.5801 110.143 46.5801 113.581V129.206C46.5801 130.925 47.9863 132.331 49.7051 132.331H51.2676V151.081C51.2676 152.8 52.6738 154.206 54.3926 154.206H60.6426C62.3613 154.206 63.7676 152.8 63.7676 151.081ZM71.5801 129.206V138.581C71.5801 140.3 72.9863 141.706 74.7051 141.706V151.081C74.7051 152.8 76.1113 154.206 77.8301 154.206H80.9551C82.6738 154.206 84.0801 152.8 84.0801 151.081V141.706C85.7988 141.706 87.2051 140.3 87.2051 138.581V129.206C87.2051 126.643 85.0801 124.518 82.5176 124.518H76.2676C73.7051 124.518 71.5801 126.643 71.5801 129.206Z" fill="white"/>
<path d="M157.999 97.9558C157.999 94.4871 160.78 91.7058 164.249 91.7058C167.718 91.7058 170.499 94.4871 170.499 97.9558C170.499 101.425 167.718 104.206 164.249 104.206C160.78 104.206 157.999 101.425 157.999 97.9558ZM170.499 151.081V135.456H173.968C176.093 135.456 177.593 133.362 176.937 131.331L170.374 111.612C169.956 110.367 169.158 109.285 168.093 108.517C167.028 107.749 165.75 107.334 164.437 107.331H164.062C162.747 107.33 161.466 107.743 160.4 108.511C159.335 109.28 158.538 110.365 158.124 111.612L155.437 119.675C158.812 121.55 161.124 125.081 161.124 129.206V154.206H167.374C169.093 154.206 170.499 152.8 170.499 151.081ZM147.062 121.393C149.655 121.393 151.749 119.3 151.749 116.706C151.749 114.112 149.655 112.018 147.062 112.018C144.468 112.018 142.374 114.112 142.374 116.706C142.374 119.3 144.468 121.393 147.062 121.393ZM125.187 104.206C128.655 104.206 131.437 101.425 131.437 97.9558C131.437 94.4871 128.655 91.7058 125.187 91.7058C121.718 91.7058 118.937 94.4871 118.937 97.9558C118.937 101.425 121.718 104.206 125.187 104.206ZM131.437 151.081V132.331H132.999C134.718 132.331 136.124 130.925 136.124 129.206V113.581C136.124 110.143 133.312 107.331 129.874 107.331H120.499C117.062 107.331 114.249 110.143 114.249 113.581V129.206C114.249 130.925 115.655 132.331 117.374 132.331H118.937V151.081C118.937 152.8 120.343 154.206 122.062 154.206H128.312C130.03 154.206 131.437 152.8 131.437 151.081ZM139.249 129.206V138.581C139.249 140.3 140.655 141.706 142.374 141.706V151.081C142.374 152.8 143.78 154.206 145.499 154.206H148.624C150.343 154.206 151.749 152.8 151.749 151.081V141.706C153.468 141.706 154.874 140.3 154.874 138.581V129.206C154.874 126.643 152.749 124.518 150.187 124.518H143.937C141.374 124.518 139.249 126.643 139.249 129.206Z" fill="white"/>
<path d="M225.67 97.9558C225.67 94.4871 228.451 91.7058 231.92 91.7058C235.389 91.7058 238.17 94.4871 238.17 97.9558C238.17 101.425 235.389 104.206 231.92 104.206C228.451 104.206 225.67 101.425 225.67 97.9558ZM238.17 151.081V135.456H241.639C243.764 135.456 245.264 133.362 244.608 131.331L238.045 111.612C237.627 110.367 236.83 109.285 235.765 108.517C234.7 107.749 233.421 107.334 232.108 107.331H231.733C230.419 107.33 229.137 107.743 228.072 108.511C227.006 109.28 226.209 110.365 225.795 111.612L223.108 119.675C226.483 121.55 228.795 125.081 228.795 129.206V154.206H235.045C236.764 154.206 238.17 152.8 238.17 151.081ZM214.733 121.393C217.326 121.393 219.42 119.3 219.42 116.706C219.42 114.112 217.326 112.018 214.733 112.018C212.139 112.018 210.045 114.112 210.045 116.706C210.045 119.3 212.139 121.393 214.733 121.393ZM192.858 104.206C196.326 104.206 199.108 101.425 199.108 97.9558C199.108 94.4871 196.326 91.7058 192.858 91.7058C189.389 91.7058 186.608 94.4871 186.608 97.9558C186.608 101.425 189.389 104.206 192.858 104.206ZM199.108 151.081V132.331H200.67C202.389 132.331 203.795 130.925 203.795 129.206V113.581C203.795 110.143 200.983 107.331 197.545 107.331H188.17C184.733 107.331 181.92 110.143 181.92 113.581V129.206C181.92 130.925 183.326 132.331 185.045 132.331H186.608V151.081C186.608 152.8 188.014 154.206 189.733 154.206H195.983C197.701 154.206 199.108 152.8 199.108 151.081ZM206.92 129.206V138.581C206.92 140.3 208.326 141.706 210.045 141.706V151.081C210.045 152.8 211.451 154.206 213.17 154.206H216.295C218.014 154.206 219.42 152.8 219.42 151.081V141.706C221.139 141.706 222.545 140.3 222.545 138.581V129.206C222.545 126.643 220.42 124.518 217.858 124.518H211.608C209.045 124.518 206.92 126.643 206.92 129.206Z" fill="white"/>
</svg>
