<svg width="291" height="184" viewBox="0 0 291 184" fill="none" xmlns="http://www.w3.org/2000/svg">
<rect width="291" height="183.912" rx="16" fill="#A2003D"/>
<path d="M30.4917 26.364H35.8726C40.1011 26.364 42.5913 28.8835 42.5913 33.3562C42.5913 37.8289 40.1011 40.4558 35.8726 40.4558H30.4917V26.364ZM33.4409 28.7957V38.0144H35.521C38.1577 38.0144 39.5835 36.4128 39.5835 33.366C39.5835 30.4167 38.1187 28.7957 35.521 28.7957H33.4409ZM53.2315 38.0144V40.4558H43.8956V26.364H53.2315V28.7957H46.8448V32.1941H52.8702V34.4597H46.8448V38.0144H53.2315ZM60.9909 40.7C56.8894 40.7 54.321 37.9558 54.321 33.405C54.321 28.864 56.9089 26.1199 60.9909 26.1199C64.3796 26.1199 66.9577 28.2683 67.1823 31.4226H64.3112C64.0378 29.6941 62.7097 28.5613 60.9909 28.5613C58.7644 28.5613 57.3288 30.4265 57.3288 33.3953C57.3288 36.4031 58.7448 38.2585 61.0007 38.2585C62.7487 38.2585 64.0085 37.2332 64.321 35.5632H67.1921C66.8601 38.7078 64.4479 40.7 60.9909 40.7ZM77.7542 38.0144V40.4558H68.4183V26.364H77.7542V28.7957H71.3675V32.1941H77.3929V34.4597H71.3675V38.0144H77.7542ZM82.1054 40.4558H79.2831V26.364H81.744L88.3261 35.5437H88.4042V26.364H91.2265V40.4558H88.7851L82.1933 31.2273H82.1054V40.4558ZM99.2983 40.4558H96.3491V28.7957H92.2769V26.364H103.38V28.7957H99.2983V40.4558ZM116.214 30.8269L113.538 40.4558H110.755L107.024 26.364H110.081L112.298 36.5691H112.376L115.012 26.364H117.503L120.139 36.5691H120.217L122.444 26.364H125.501L121.76 40.4558H118.977L116.301 30.8269H116.214ZM132.362 26.1199C136.532 26.1199 139.158 28.9226 139.158 33.4148C139.158 37.8972 136.532 40.7 132.362 40.7C128.182 40.7 125.565 37.8972 125.565 33.4148C125.565 28.9226 128.182 26.1199 132.362 26.1199ZM132.362 28.5808C130.057 28.5808 128.573 30.4558 128.573 33.4148C128.573 36.364 130.047 38.2292 132.362 38.2292C134.666 38.2292 136.141 36.364 136.141 33.4148C136.141 30.4558 134.666 28.5808 132.362 28.5808ZM143.412 28.6687V33.1609H145.951C147.435 33.1609 148.305 32.3113 148.305 30.9148C148.305 29.5476 147.387 28.6687 145.922 28.6687H143.412ZM143.412 35.2996V40.4558H140.463V26.364H146.234C149.476 26.364 151.332 28.073 151.332 30.8562C151.332 32.6628 150.394 34.2253 148.773 34.8601L151.742 40.4558H148.402L145.775 35.2996H143.412ZM155.625 40.4558H152.675V26.364H155.625V32.7898H155.712L161.005 26.364H164.287L159.072 32.614L164.648 40.4558H161.123L156.943 34.5671L155.625 36.1492V40.4558ZM177.891 40.4558L176.817 37.0378H171.866L170.792 40.4558H167.764L172.657 26.364H176.124L181.026 40.4558H177.891ZM174.307 29.0593L172.501 34.8308H176.182L174.376 29.0593H174.307ZM184.694 40.4558H181.871V26.364H184.332L190.914 35.5437H190.992V26.364H193.815V40.4558H191.373L184.782 31.2273H184.694V40.4558ZM195.568 26.364H200.949C205.178 26.364 207.668 28.8835 207.668 33.3562C207.668 37.8289 205.178 40.4558 200.949 40.4558H195.568V26.364ZM198.517 28.7957V38.0144H200.598C203.234 38.0144 204.66 36.4128 204.66 33.366C204.66 30.4167 203.195 28.7957 200.598 28.7957H198.517ZM39.8276 59.0144V61.4558H30.4917V47.364H39.8276V49.7957H33.4409V53.1941H39.4663V55.4597H33.4409V59.0144H39.8276ZM47.587 61.7C43.4854 61.7 40.9171 58.9558 40.9171 54.405C40.9171 49.864 43.505 47.1199 47.587 47.1199C50.9757 47.1199 53.5538 49.2683 53.7784 52.4226H50.9073C50.6339 50.6941 49.3058 49.5613 47.587 49.5613C45.3604 49.5613 43.9249 51.4265 43.9249 54.3953C43.9249 57.4031 45.3409 59.2585 47.5968 59.2585C49.3448 59.2585 50.6046 58.2332 50.9171 56.5632H53.7882C53.4562 59.7078 51.044 61.7 47.587 61.7ZM61.3718 47.1199C65.5417 47.1199 68.1687 49.9226 68.1687 54.4148C68.1687 58.8972 65.5417 61.7 61.3718 61.7C57.1921 61.7 54.5749 58.8972 54.5749 54.4148C54.5749 49.9226 57.1921 47.1199 61.3718 47.1199ZM61.3718 49.5808C59.0671 49.5808 57.5827 51.4558 57.5827 54.4148C57.5827 57.364 59.0573 59.2292 61.3718 59.2292C63.6765 59.2292 65.1511 57.364 65.1511 54.4148C65.1511 51.4558 63.6765 49.5808 61.3718 49.5808ZM72.2952 61.4558H69.4729V47.364H71.9339L78.5159 56.5437H78.594V47.364H81.4163V61.4558H78.9749L72.3831 52.2273H72.2952V61.4558ZM89.5272 47.1199C93.6972 47.1199 96.3241 49.9226 96.3241 54.4148C96.3241 58.8972 93.6972 61.7 89.5272 61.7C85.3476 61.7 82.7304 58.8972 82.7304 54.4148C82.7304 49.9226 85.3476 47.1199 89.5272 47.1199ZM89.5272 49.5808C87.2226 49.5808 85.7382 51.4558 85.7382 54.4148C85.7382 57.364 87.2128 59.2292 89.5272 59.2292C91.8319 59.2292 93.3065 57.364 93.3065 54.4148C93.3065 51.4558 91.8319 49.5808 89.5272 49.5808ZM112.55 61.4558H109.923V51.9441H109.845L106.017 61.3191H104.162L100.333 51.9441H100.255V61.4558H97.6284V47.364H101.046L105.05 57.3542H105.128L109.132 47.364H112.55V61.4558ZM117.243 61.4558H114.294V47.364H117.243V61.4558ZM125.217 61.7C121.116 61.7 118.548 58.9558 118.548 54.405C118.548 49.864 121.135 47.1199 125.217 47.1199C128.606 47.1199 131.184 49.2683 131.409 52.4226H128.538C128.264 50.6941 126.936 49.5613 125.217 49.5613C122.991 49.5613 121.555 51.4265 121.555 54.3953C121.555 57.4031 122.971 59.2585 125.227 59.2585C126.975 59.2585 128.235 58.2332 128.548 56.5632H131.419C131.087 59.7078 128.675 61.7 125.217 61.7ZM148.607 55.5378C148.607 59.3757 146.283 61.7 142.357 61.7C138.148 61.7 135.57 58.946 135.57 54.366C135.57 49.8542 138.148 47.1199 142.289 47.1199C145.58 47.1199 148.06 49.0632 148.48 51.9148H145.521C145.092 50.4402 143.891 49.5613 142.299 49.5613C139.975 49.5613 138.578 51.3289 138.578 54.3269C138.578 57.3835 140.062 59.2488 142.406 59.2488C144.33 59.2488 145.668 58.0671 145.726 56.3191L145.736 56.0945H142.67V53.946H148.607V55.5378ZM152.91 49.6687V54.1609H155.449C156.933 54.1609 157.802 53.3113 157.802 51.9148C157.802 50.5476 156.884 49.6687 155.419 49.6687H152.91ZM152.91 56.2996V61.4558H149.96V47.364H155.732C158.974 47.364 160.83 49.073 160.83 51.8562C160.83 53.6628 159.892 55.2253 158.271 55.8601L161.24 61.4558H157.9L155.273 56.2996H152.91ZM168.53 47.1199C172.7 47.1199 175.327 49.9226 175.327 54.4148C175.327 58.8972 172.7 61.7 168.53 61.7C164.351 61.7 161.733 58.8972 161.733 54.4148C161.733 49.9226 164.351 47.1199 168.53 47.1199ZM168.53 49.5808C166.226 49.5808 164.741 51.4558 164.741 54.4148C164.741 57.364 166.216 59.2292 168.53 59.2292C170.835 59.2292 172.31 57.364 172.31 54.4148C172.31 51.4558 170.835 49.5808 168.53 49.5808ZM184.581 51.8269L181.905 61.4558H179.122L175.391 47.364H178.448L180.665 57.5691H180.743L183.38 47.364H185.87L188.507 57.5691H188.585L190.811 47.364H193.868L190.128 61.4558H187.344L184.669 51.8269H184.581ZM201.178 61.4558H198.229V49.7957H194.157V47.364H205.26V49.7957H201.178V61.4558ZM218.537 61.4558H215.588V55.5183H209.24V61.4558H206.291V47.364H209.24V53.0867H215.588V47.364H218.537V61.4558Z" fill="white"/>
<path d="M165.422 92.4871C162.186 92.4871 159.562 95.1104 159.562 98.3464V147.565C159.562 150.801 162.186 153.425 165.422 153.425H167.766C171.002 153.425 173.625 150.801 173.625 147.565V98.3464C173.625 95.1104 171.002 92.4871 167.766 92.4871H165.422Z" fill="white"/>
<path d="M138.469 112.409C138.469 109.173 141.092 106.55 144.328 106.55H146.672C149.908 106.55 152.531 109.173 152.531 112.409V147.565C152.531 150.801 149.908 153.425 146.672 153.425H144.328C141.092 153.425 138.469 150.801 138.469 147.565V112.409Z" fill="white"/>
<path d="M117.375 126.471C117.375 123.235 119.998 120.612 123.234 120.612H125.578C128.814 120.612 131.438 123.235 131.438 126.471V147.565C131.438 150.801 128.814 153.425 125.578 153.425H123.234C119.998 153.425 117.375 150.801 117.375 147.565V126.471Z" fill="white"/>
</svg>
