<svg width="28" height="28" viewBox="0 0 28 28" fill="none" xmlns="http://www.w3.org/2000/svg">
<path d="M23.9166 18.6667V21.5833C23.9166 23.835 22.0849 25.6667 19.8333 25.6667H8.16658C5.91492 25.6667 4.08325 23.835 4.08325 21.5833V20.825C4.08325 18.9933 5.57659 17.5 7.40825 17.5H22.7499C23.3916 17.5 23.9166 18.025 23.9166 18.6667Z" fill="#F1FCF3"/>
<path d="M18.0833 2.33337H9.91658C5.24992 2.33337 4.08325 3.50004 4.08325 8.16671V17.01C4.96992 16.2284 6.13658 15.75 7.40825 15.75H22.7499C23.3916 15.75 23.9166 15.225 23.9166 14.5834V8.16671C23.9166 3.50004 22.7499 2.33337 18.0833 2.33337ZM15.1666 12.5417H9.33325C8.85492 12.5417 8.45825 12.145 8.45825 11.6667C8.45825 11.1884 8.85492 10.7917 9.33325 10.7917H15.1666C15.6449 10.7917 16.0416 11.1884 16.0416 11.6667C16.0416 12.145 15.6449 12.5417 15.1666 12.5417ZM18.6666 8.45837H9.33325C8.85492 8.45837 8.45825 8.06171 8.45825 7.58337C8.45825 7.10504 8.85492 6.70837 9.33325 6.70837H18.6666C19.1449 6.70837 19.5416 7.10504 19.5416 7.58337C19.5416 8.06171 19.1449 8.45837 18.6666 8.45837Z" fill="#F1FCF3"/>
</svg>
