<?xml version="1.0" encoding="UTF-8"?>
<svg version="1.1" xmlns="http://www.w3.org/2000/svg" width="1596" height="888">
<path d="M0 0 C7.71782961 1.2891255 15.05733427 3.4473566 22.50192833 5.83073044 C25.30330045 6.727446 28.1084053 7.61222325 30.91327 8.49794197 C32.38666257 8.96333309 33.85986835 9.42931596 35.33289242 9.89587212 C43.1710156 12.37706816 51.02770615 14.79689071 58.88671875 17.2109375 C60.28607579 17.64125025 61.68541865 18.07160915 63.08474731 18.50201416 C66.57998848 19.57687661 70.07548408 20.65090913 73.57104492 21.72473145 C77.15234601 22.82506545 80.73338786 23.92624252 84.31445312 25.02734375 C89.5645605 26.64155858 94.81480432 28.25532837 100.06518555 29.86865234 C106.71064088 31.91075483 113.35544185 33.95498035 120 36 C119.39639142 47.83318353 118.24477239 59.53991176 116.84326172 71.30395508 C116.49601738 74.2209557 116.15574012 77.13871018 115.81640625 80.05664062 C115.59675432 81.92713037 115.37671669 83.79757487 115.15625 85.66796875 C115.05517944 86.53254196 114.95410889 87.39711517 114.84997559 88.28788757 C114.37796237 92.23206087 113.86624926 96.11819468 113 100 C113.69222656 100.22945313 114.38445312 100.45890625 115.09765625 100.6953125 C118.62787874 102.28224966 121.44869013 104.46193462 124.4375 106.875 C125.03933105 107.35461182 125.64116211 107.83422363 126.26123047 108.32836914 C144.05412046 122.60835124 144.05412046 122.60835124 147.9609375 127.41015625 C149.97075392 129.34753732 149.97075392 129.34753732 153.03466797 128.74926758 C157.58453398 127.97259092 162.02763675 126.78944387 166.484375 125.6015625 C167.38061584 125.36593597 168.27685669 125.13030945 169.20025635 124.88754272 C172.05115245 124.13702801 174.90056764 123.38105067 177.75 122.625 C179.6483455 122.12465083 181.54678223 121.62464765 183.4453125 121.125 C195.72601788 117.89503837 195.72601788 117.89503837 207.95019531 114.45849609 C210 114 210 114 214 114 C214.40202637 114.7842334 214.80405273 115.5684668 215.21826172 116.37646484 C224.5878313 134.7224747 224.5878313 134.7224747 234.4375 152.8125 C237.3298402 157.9384309 240.0967286 163.09010197 242.6875 168.375 C246.11415608 175.36386026 249.7594338 182.23040926 253.44302368 189.08648682 C254.43164409 190.92660043 255.41847078 192.76766698 256.4050293 194.60888672 C259.243776 199.90181108 262.0948058 205.18673796 265.00390625 210.44140625 C265.43324463 211.22588135 265.86258301 212.01035645 266.30493164 212.81860352 C267.07653488 214.22703558 267.85763681 215.63032444 268.65014648 217.02709961 C269.9417218 219.39932323 270.96991219 221.39490081 271.10546875 224.12109375 C269.32131908 227.15351774 266.5923756 229.00192137 263.8125 231.0625 C262.52585939 232.04403194 261.23940611 233.02580949 259.953125 234.0078125 C259.29376953 234.50571289 258.63441406 235.00361328 257.95507812 235.51660156 C254.96228113 237.78736012 252.01266472 240.11179807 249.0625 242.4375 C248.21365234 243.10362305 248.21365234 243.10362305 247.34765625 243.78320312 C242.16239086 247.85567561 237.01729964 251.97795797 231.88500977 256.11694336 C229.3094848 258.1874771 226.75160067 260.16559955 224 262 C224.12117188 263.00675781 224.24234375 264.01351563 224.3671875 265.05078125 C225.30845361 272.92499835 226.21648857 280.80244701 227.0625 288.6875 C227.14161621 289.4091333 227.22073242 290.1307666 227.30224609 290.87426758 C227.37910645 291.60025146 227.4559668 292.32623535 227.53515625 293.07421875 C227.62627686 293.83138184 227.71739746 294.58854492 227.8112793 295.36865234 C228 298 228 298 227.83911133 301.41650391 C227.77048648 305.24673998 227.92138074 308.31760969 229 312 C232.60781513 315.72641573 236.93819686 317.78660595 241.5625 320 C242.82898219 320.65475567 244.09255865 321.31516031 245.35327148 321.98095703 C247.94005469 323.34225346 250.53736416 324.67917717 253.14453125 326.00097656 C259.0925284 329.04697485 264.81465109 332.46992046 270.5625 335.875 C272.52195004 337.01854687 274.48156978 338.16180303 276.44140625 339.3046875 C279.01963332 340.81123416 281.51349398 342.34232932 284 344 C281.04520966 356.03050744 277.80679039 367.96316335 274.33447266 379.85449219 C273.61215643 382.36585009 272.91057384 384.88326527 272.22998047 387.40625 C265.63195234 411.77991812 265.63195234 411.77991812 256.41015625 417.44921875 C254.59592612 418.44685178 252.78357829 419.33778976 250.88612366 420.1656189 C248.82338693 421.07812988 246.86363293 422.11638726 244.8828125 423.19458008 C213.62937852 440.12179394 178.91926015 445.23675407 143.73046875 445.09765625 C142.31415355 445.09578513 140.89783769 445.09436452 139.48152161 445.09336853 C135.80079275 445.08959793 132.120105 445.0798161 128.43939209 445.06866455 C124.6646785 445.05833128 120.88995811 445.0538457 117.11523438 445.04882812 C109.74347109 445.0381874 102.37174136 445.02117889 95 445 C95 443 95 443 97.0625 440.8125 C98.03787117 439.87105181 99.01741318 438.93391475 100 438 C130.28319775 408.93380339 148.26978439 364.0169115 149.203125 322.296875 C149.65405448 278.90711931 138.72051436 238.78708473 112 204 C111.03707031 202.72769531 111.03707031 202.72769531 110.0546875 201.4296875 C98.37178825 186.54842799 84.72263769 174.4455542 69 164 C68.4112207 163.60345215 67.82244141 163.2069043 67.21582031 162.79833984 C45.38823839 148.21855145 19.85619184 139.73670143 -6 136 C-6.68497559 135.8983252 -7.36995117 135.79665039 -8.07568359 135.69189453 C-15.27066495 134.7534187 -22.50435046 134.75644942 -29.75 134.75 C-30.43396851 134.74932526 -31.11793701 134.74865051 -31.82263184 134.74795532 C-74.78535178 134.8149398 -118.98580949 150.24184657 -150.21484375 180.453125 C-152 182 -152 182 -154 182 C-154 182.66 -154 183.32 -154 184 C-155.28515625 185.2265625 -155.28515625 185.2265625 -157.0625 186.625 C-171.39493152 198.61627736 -181.55175402 215.58095422 -190 232 C-190.35545898 232.67047363 -190.71091797 233.34094727 -191.07714844 234.03173828 C-197.93961646 247.044653 -201.95460888 260.90129163 -206 275 C-213.87896109 272.80139493 -221.4541228 269.99851976 -229.078125 267.046875 C-239.75183071 262.94886738 -250.46698791 258.98554107 -261.234375 255.140625 C-261.91161118 254.89851791 -262.58884735 254.65641083 -263.28660583 254.40696716 C-269.51121746 252.18218646 -275.73860539 249.96522439 -281.96679688 247.75048828 C-286.09911812 246.28044557 -290.23004178 244.80654063 -294.359375 243.328125 C-295.01361954 243.09389328 -295.66786407 242.85966156 -296.3419342 242.61833191 C-306.34988943 239.02749523 -316.24354159 235.22913199 -326 231 C-325.40568097 223.54195776 -323.26897435 216.7536248 -321.03515625 209.63671875 C-320.63736191 208.35510492 -320.24002578 207.07334878 -319.84312439 205.79145813 C-319.01435403 203.11995425 -318.18094822 200.44995685 -317.34399414 197.78100586 C-316.27233125 194.36269856 -315.21112991 190.94125135 -314.15317631 187.51867962 C-313.33586335 184.8778507 -312.51374449 182.23853781 -311.69009209 179.59967995 C-311.10613734 177.72642505 -310.52570623 175.8520729 -309.94532776 173.97770691 C-309.58833298 172.84255142 -309.2313382 171.70739594 -308.86352539 170.5378418 C-308.55121475 169.5382695 -308.23890411 168.5386972 -307.91712952 167.50883484 C-307 165 -307 165 -305 162 C-302.32980347 161.79109192 -302.32980347 161.79109192 -298.89794922 162.02661133 C-296.97618362 162.14707573 -296.97618362 162.14707573 -295.01559448 162.26997375 C-293.61193436 162.37366225 -292.20829921 162.47768946 -290.8046875 162.58203125 C-289.37273971 162.67735511 -287.94069996 162.77130656 -286.50857544 162.86393738 C-282.73625268 163.11164932 -278.96547025 163.37803162 -275.19470215 163.64825439 C-271.34800295 163.92061843 -267.5001446 164.17539993 -263.65234375 164.43164062 C-256.10031388 164.93717545 -248.54982434 165.46242962 -241 166 C-240.71261963 165.39945801 -240.42523926 164.79891602 -240.12915039 164.18017578 C-238.5646559 161.1594329 -236.51633601 158.55234851 -234.4375 155.875 C-233.99567383 155.30241455 -233.55384766 154.7298291 -233.09863281 154.13989258 C-229.66543658 149.74057385 -226.02796153 145.57743239 -222.203125 141.51171875 C-221.47609375 140.68285156 -220.7490625 139.85398438 -220 139 C-219.19690903 138.23604919 -219.19690903 138.23604919 -218.37759399 137.45666504 C-215.5856952 134.45511956 -213.97397001 132.3570751 -214.05456543 128.15522766 C-214.75466694 124.7436655 -215.67185581 121.47351395 -216.6953125 118.14453125 C-217.03674286 116.92473068 -217.37817322 115.70493011 -217.72994995 114.44816589 C-218.64051614 111.21728098 -219.58210792 107.99914157 -220.54144287 104.78265381 C-221.88465831 100.247809 -223.16520282 95.69473538 -224.45578003 91.1446991 C-225.14569172 88.72636581 -225.84644086 86.31109238 -226.55911255 83.89936829 C-227.03862869 82.2569239 -227.03862869 82.2569239 -227.52783203 80.58129883 C-227.81240265 79.62169754 -228.09697327 78.66209625 -228.39016724 77.67341614 C-228.99580738 75.01837983 -229.11601666 72.71242339 -229 70 C-216.60484676 63.12194789 -204.11255229 56.46800023 -191.5 50 C-181.69767378 44.97269122 -171.96614857 39.8510496 -162.3203125 34.52758789 C-154.44673587 30.20109878 -146.4829959 26.05733474 -138.5 21.9375 C-137.8681781 21.61135712 -137.2363562 21.28521423 -136.58538818 20.94918823 C-130.73958023 17.93379394 -124.88756321 14.93333876 -119 12 C-111.75068785 20.87435668 -104.5577806 29.78498534 -97.5 38.8125 C-94.68482044 42.41110873 -91.82304126 45.97152204 -88.94921875 49.5234375 C-86.23721657 52.96914769 -83.61994473 56.48402877 -81 60 C-80.39639648 59.91435791 -79.79279297 59.82871582 -79.17089844 59.74047852 C-63.0077271 57.45896338 -47.327627 55.81351695 -31 56 C-30.72994141 55.28553711 -30.45988281 54.57107422 -30.18164062 53.83496094 C-28.988065 50.97136586 -27.61173477 48.34531107 -26.09375 45.640625 C-25.51939209 44.61517578 -24.94503418 43.58972656 -24.35327148 42.53320312 C-23.4359021 40.90801758 -23.4359021 40.90801758 -22.5 39.25 C-21.87359619 38.13560547 -21.24719238 37.02121094 -20.60180664 35.87304688 C-16.17967664 28.02906421 -11.66167462 20.24735192 -7.06640625 12.50390625 C-4.62429463 8.38263466 -2.29390431 4.20549124 0 0 Z " fill="#995A4B" transform="translate(886,75)"/>
<path d="M0 0 C6.01976846 3.09163417 11.43532433 6.66929521 16.859375 10.70703125 C19.78935926 12.8462113 22.76121762 14.89496864 25.765625 16.92675781 C39.6625473 26.33502725 52.47012498 36.84959171 65 48 C65.8650415 48.76812012 65.8650415 48.76812012 66.74755859 49.55175781 C90.00526954 70.30684563 108.29776123 95.19229183 124 122 C124.58007812 122.96292969 125.16015625 123.92585937 125.7578125 124.91796875 C168.4655822 197.27910891 187.61142398 285.63889428 205 367 C205.35868164 368.67497559 205.35868164 368.67497559 205.72460938 370.38378906 C206.96318684 376.19348014 208.17136227 382.0087544 209.35400391 387.83007812 C209.96732717 390.83967344 210.58810256 393.84767262 211.21032715 396.85543823 C211.77714577 399.60243146 212.33840451 402.35054174 212.89837646 405.09893799 C213.30254457 407.07629398 213.71199711 409.05256752 214.12158203 411.02880859 C214.36634277 412.23875488 214.61110352 413.44870117 214.86328125 414.6953125 C215.08282471 415.76797363 215.30236816 416.84063477 215.52856445 417.94580078 C216.0023687 421.01534566 216.08452802 423.89947732 216 427 C213.25859937 423.74264415 210.94476177 420.38533796 208.75463867 416.73608398 C193.62468953 391.5298304 173.22447738 368.03811235 150 350 C148.94629032 349.14653528 147.89428669 348.2909611 146.84375 347.43359375 C112.08040186 319.26870354 70.60339296 299.84563876 29.98828125 281.765625 C16.86747309 275.92012823 3.91537105 269.7516458 -8.99804688 263.46142578 C-11.5324332 262.2276232 -14.07028796 261.00142311 -16.609375 259.77734375 C-40.64077937 248.09097924 -63.96241727 233.72520845 -84.27734375 216.31640625 C-87.7133921 213.39305378 -91.26687191 210.63495342 -94.84375 207.88671875 C-97.23217577 205.7968462 -99.04259912 203.49123748 -101 201 C-101.9075 200.278125 -102.815 199.55625 -103.75 198.8125 C-104.4925 198.214375 -105.235 197.61625 -106 197 C-106 196.34 -106 195.68 -106 195 C-106.66 195 -107.32 195 -108 195 C-110.54722396 192.5374483 -112.73255313 189.71919874 -115 187 C-115.67289062 186.21367188 -116.34578125 185.42734375 -117.0390625 184.6171875 C-123.89772451 176.46161486 -129.94205911 167.75755805 -136 159 C-135.01 157.02 -135.01 157.02 -134 155 C-133.34 155 -132.68 155 -132 155 C-131.67 154.01 -131.34 153.02 -131 152 C-130.34 152 -129.68 152 -129 152 C-129 151.01 -129 150.02 -129 149 C-128.01 149 -127.02 149 -126 149 C-125.7525 148.278125 -125.505 147.55625 -125.25 146.8125 C-123.31232584 142.45273313 -120.96276074 139.6418405 -117 137 C-115.80767387 134.94996045 -115.80767387 134.94996045 -115 133 C-114.34 133 -113.68 133 -113 133 C-113 132.01 -113 131.02 -113 130 C-112.01 130 -111.02 130 -110 130 C-110 129.34 -110 128.68 -110 128 C-109.34 128 -108.68 128 -108 128 C-107.773125 127.278125 -107.54625 126.55625 -107.3125 125.8125 C-105.74082213 122.44461885 -103.68042475 120.54967233 -101 118 C-100.443125 117.236875 -99.88625 116.47375 -99.3125 115.6875 C-98.879375 115.130625 -98.44625 114.57375 -98 114 C-97.34 114 -96.68 114 -96 114 C-95.938125 113.443125 -95.87625 112.88625 -95.8125 112.3125 C-94.89905362 109.71269107 -93.59403814 108.48354558 -91.6015625 106.63671875 C-88.70275373 103.6742776 -86.28186434 100.30225062 -83.76953125 97.01171875 C-83.18558594 96.34785156 -82.60164063 95.68398438 -82 95 C-81.34 95 -80.68 95 -80 95 C-79.78472656 94.46503906 -79.56945312 93.93007813 -79.34765625 93.37890625 C-77.16017146 89.51752006 -73.9533188 86.51880525 -70.90039062 83.33398438 C-68.60268245 80.89553775 -67.07347186 79.22041559 -66 76 C-64.5625 74.3125 -64.5625 74.3125 -63 73 C-62.34 73 -61.68 73 -61 73 C-61 72.34 -61 71.68 -61 71 C-60.01 70.34 -59.02 69.68 -58 69 C-56.9935725 67.33720673 -55.99414593 65.67016516 -55 64 C-52.9375 61.6875 -52.9375 61.6875 -51 60 C-50.34 60 -49.68 60 -49 60 C-48.79375 59.113125 -48.5875 58.22625 -48.375 57.3125 C-46.93671129 53.84753174 -45.5383967 52.62993535 -42.5859375 50.43359375 C-40.12973397 48.21333095 -38.73202539 45.4674424 -37.17578125 42.57421875 C-36.78777344 42.05472656 -36.39976562 41.53523438 -36 41 C-35.01 41 -34.02 41 -33 41 C-32.5359375 40.071875 -32.5359375 40.071875 -32.0625 39.125 C-31.375 37.75 -30.6875 36.375 -30 35 C-29.34 35 -28.68 35 -28 35 C-27.938125 34.443125 -27.87625 33.88625 -27.8125 33.3125 C-26.6552513 30.01879217 -24.51681071 28.40495246 -22 26 C-20.41773384 24.1385104 -18.86756448 22.25564047 -17.33203125 20.35546875 C-16.89246094 19.90816406 -16.45289063 19.46085937 -16 19 C-15.34 19 -14.68 19 -14 19 C-14 18.01 -14 17.02 -14 16 C-12.125 13.8125 -12.125 13.8125 -10 12 C-9.34 12 -8.68 12 -8 12 C-7.79375 11.319375 -7.5875 10.63875 -7.375 9.9375 C-5.54591134 6.02990149 -2.89720966 3.16142061 0 0 Z " fill="#51BF42" transform="translate(554,419)"/>
<path d="M0 0 C3.28280636 0.60235974 6.36350829 1.38327125 9.51171875 2.48828125 C10.35283203 2.78283203 11.19394531 3.07738281 12.06054688 3.38085938 C12.92744141 3.68830078 13.79433594 3.99574219 14.6875 4.3125 C15.53505859 4.60833984 16.38261719 4.90417969 17.25585938 5.20898438 C22.4073593 7.02278245 27.49300856 8.96096936 32.55493164 11.01098633 C34.91338467 11.96496468 37.27906349 12.8977472 39.6484375 13.82421875 C56.50728499 20.45163633 73.03156639 27.73577829 89.13378906 36.04248047 C90.94419522 36.97136756 92.76398757 37.87917293 94.5859375 38.78515625 C115.16603971 49.19283995 134.25900565 63.18003123 151 79 C151.85851562 79.7940625 152.71703125 80.588125 153.6015625 81.40625 C175.70322695 102.55251108 190.7696943 130.06679862 200 159 C200.2175293 159.66451172 200.43505859 160.32902344 200.65917969 161.01367188 C212.3803824 197.36535956 212.94332229 236.23484937 211 274 C210.93797575 275.36303284 210.87604733 276.72607004 210.81420898 278.08911133 C210.30106646 288.66058648 209.11895257 299.07941786 207.6875 309.5625 C207.57639893 310.3890509 207.46529785 311.21560181 207.35083008 312.06719971 C204.41486083 333.90465315 200.67417279 355.46418168 196 377 C193.9950658 373.9925987 193.30808286 371.91460445 192.40625 368.453125 C192.10364258 367.31447998 191.80103516 366.17583496 191.48925781 365.00268555 C191.16280273 363.76429932 190.83634766 362.52591309 190.5 361.25 C170.03745891 285.26182498 137.55765689 206.59111917 83 144 C82.40058594 143.30132812 81.80117188 142.60265625 81.18359375 141.8828125 C71.16318776 130.24465422 60.71273905 118.95082274 49 109 C48.09121094 108.22527344 47.18242188 107.45054687 46.24609375 106.65234375 C18.21323826 83.00533267 -12.49068937 66.30463543 -47 54 C-46.3709375 53.71898437 -45.741875 53.43796875 -45.09375 53.1484375 C-42.31320382 51.62328717 -41.55900395 49.72825691 -40 47 C-37.9375 44.6875 -37.9375 44.6875 -36 43 C-35.34 43 -34.68 43 -34 43 C-33.814375 42.13375 -33.62875 41.2675 -33.4375 40.375 C-31.78471982 36.49455958 -30.04610709 35.12957265 -26.8125 32.58984375 C-24.90384508 30.91565722 -23.60616553 29.22344276 -22.1875 27.125 C-21.1046875 25.578125 -21.1046875 25.578125 -20 24 C-19.34 24 -18.68 24 -18 24 C-17.73316406 23.41347656 -17.46632813 22.82695312 -17.19140625 22.22265625 C-15.97631623 19.95581619 -14.66848194 18.33216818 -12.9375 16.4375 C-9.89973988 13.04084839 -6.9591896 9.5805615 -4.0625 6.0625 C-3.29035156 5.12535156 -2.51820313 4.18820312 -1.72265625 3.22265625 C0.10209889 1.33694552 0.10209889 1.33694552 0 0 Z " fill="#48BD45" transform="translate(607,357)"/>
<path d="M0 0 C3.05409947 0.01906266 6.10814002 0.02307779 9.16229057 0.02693939 C17.0634618 0.03724088 24.96203751 0.10371423 32.86236572 0.21911621 C36.26100534 0.260178 39.6574664 0.26299629 43.05627441 0.25842285 C44.86930014 0.28387703 46.68229593 0.3116388 48.49523926 0.34240723 C49.28412033 0.33038269 50.0730014 0.31835815 50.88578796 0.30596924 C53.04138184 0.37072754 53.04138184 0.37072754 56.60070801 1.26428223 C58.56271509 3.48902388 59.38577736 5.48058659 60.60070801 8.26428223 C62.40168766 12.27247482 62.40168766 12.27247482 65.03820801 15.70178223 C66.94242096 17.60599518 68.0745609 19.76296901 69.36633301 22.10803223 C70.86023925 24.71764061 72.47471152 27.23495435 74.10070801 29.76428223 C81.60070801 41.50621771 81.60070801 41.50621771 81.60070801 45.26428223 C82.59070801 45.59428223 83.58070801 45.92428223 84.60070801 46.26428223 C86.67601188 49.18508027 87.60070801 50.63974953 87.60070801 54.26428223 C88.26070801 54.26428223 88.92070801 54.26428223 89.60070801 54.26428223 C89.93070801 55.91428223 90.26070801 57.56428223 90.60070801 59.26428223 C91.26070801 59.26428223 91.92070801 59.26428223 92.60070801 59.26428223 C93.57727051 61.02209473 94.55383301 62.77990723 95.53039551 64.53771973 C96.60968074 66.42554362 96.60968074 66.42554362 98.60070801 68.26428223 C98.93070801 69.43990723 99.26070801 70.61553223 99.60070801 71.82678223 C99.93070801 72.96115723 100.26070801 74.09553223 100.60070801 75.26428223 C101.26070801 75.59428223 101.92070801 75.92428223 102.60070801 76.26428223 C80.69827575 111.65039935 50.23074146 142.72989999 8.61340332 153.00158691 C-9.56262291 157.162364 -27.85229196 159.16340245 -46.40881348 160.58209229 C-50.46643456 160.89461161 -54.52261412 161.22499373 -58.57897949 161.55334473 C-60.13073107 161.67874747 -61.68248864 161.80407598 -63.23425293 161.92932129 C-64.30999573 162.01615173 -64.30999573 162.01615173 -65.4074707 162.10473633 C-67.13924449 162.24345229 -68.87129647 162.37868672 -70.60339355 162.51330566 C-83.21360213 163.5109051 -95.19533525 165.9370718 -107.39929199 169.26428223 C-108.07411621 169.44297852 -108.74894043 169.6216748 -109.44421387 169.80578613 C-120.90845137 172.9164 -131.02057491 178.51459126 -141.36901855 184.22033691 C-143.39929199 185.26428223 -143.39929199 185.26428223 -146.39929199 186.26428223 C-144.22972357 180.2275557 -140.58972499 175.10717134 -137.09509277 169.77868652 C-135.89503183 167.9452737 -134.707455 166.10417264 -133.52038574 164.2623291 C-132.76201415 163.09973473 -132.00292489 161.93760811 -131.24304199 160.77600098 C-130.20953613 159.18984985 -130.20953613 159.18984985 -129.15515137 157.57165527 C-128.57571777 156.81022217 -127.99628418 156.04878906 -127.39929199 155.26428223 C-126.73929199 155.26428223 -126.07929199 155.26428223 -125.39929199 155.26428223 C-125.15179199 154.55916504 -124.90429199 153.85404785 -124.64929199 153.12756348 C-123.23825541 149.8954078 -121.4742194 147.3009932 -119.39929199 144.45178223 C-118.69804199 143.47596191 -117.99679199 142.5001416 -117.27429199 141.49475098 C-116.65554199 140.75869629 -116.03679199 140.0226416 -115.39929199 139.26428223 C-114.73929199 139.26428223 -114.07929199 139.26428223 -113.39929199 139.26428223 C-113.14663574 138.70354004 -112.89397949 138.14279785 -112.63366699 137.56506348 C-105.64390652 124.53668082 -91.91505559 111.39896689 -80.39929199 102.26428223 C-79.50726074 101.53467285 -78.61522949 100.80506348 -77.69616699 100.05334473 C-68.4244768 92.66860656 -58.49236665 86.45680892 -48.39929199 80.26428223 C-47.28812012 79.57334473 -46.17694824 78.88240723 -45.03210449 78.17053223 C-38.67523539 74.26428223 -38.67523539 74.26428223 -36.39929199 74.26428223 C-36.39929199 73.60428223 -36.39929199 72.94428223 -36.39929199 72.26428223 C-37.88429199 72.75928223 -37.88429199 72.75928223 -39.39929199 73.26428223 C-41.23088264 73.26013366 -43.06283265 73.25032943 -44.89367676 73.19787598 C-72.14819776 72.46971333 -93.16946097 84.86168675 -113.39929199 102.26428223 C-114.51443891 103.19485541 -115.63036554 104.12449481 -116.74694824 105.05334473 C-127.58507492 114.16307851 -137.49885864 124.15521598 -147.39929199 134.26428223 C-148.7470131 131.56884002 -148.16644685 130.2104424 -147.57897949 127.26818848 C-147.37619385 126.24443115 -147.1734082 125.22067383 -146.96447754 124.16589355 C-146.73671631 123.06398682 -146.50895508 121.96208008 -146.27429199 120.82678223 C-146.04201904 119.69458252 -145.80974609 118.56238281 -145.57043457 117.39587402 C-139.59745252 88.77121096 -131.29985508 59.27366338 -112.39929199 36.26428223 C-111.72640137 35.42896973 -111.05351074 34.59365723 -110.36022949 33.73303223 C-91.3781158 11.36865101 -64.27801053 3.36664777 -35.99768066 0.53640747 C-24.03555185 -0.36821888 -11.98742778 -0.08909965 0 0 Z " fill="#31B64B" transform="translate(984.3992919921875,542.7357177734375)"/>
<path d="M0 0 C3 1 3 1 3 1 Z " fill="#82CD2C" transform="translate(1044,543)"/>
<path d="M0 0 C3 1 3 1 3 1 Z " fill="#82CD31" transform="translate(557,409)"/>
<path d="M0 0 C3 1 3 1 3 1 Z " fill="#81CD32" transform="translate(604,356)"/>
<path d="" fill="#84CD34" transform="translate(0,0)"/>
<path d="M0 0 C2 1 2 1 2 1 Z " fill="#83CE2F" transform="translate(552,407)"/>
<path d="M0 0 C2 1 2 1 2 1 Z " fill="#81CD2D" transform="translate(602,355)"/>
<path d="M0 0 C2 1 2 1 2 1 Z " fill="#82CD30" transform="translate(599,354)"/>
<path d="M0 0 C2 1 2 1 2 1 Z " fill="#82CD2D" transform="translate(597,353)"/>
<path d="" fill="#2BBC72" transform="translate(0,0)"/>
<path d="" fill="#1CB269" transform="translate(0,0)"/>
<path d="" fill="#82CD31" transform="translate(0,0)"/>
<path d="" fill="#83CE30" transform="translate(0,0)"/>
<path d="" fill="#86CD2F" transform="translate(0,0)"/>
<path d="" fill="#83CE29" transform="translate(0,0)"/>
<path d="" fill="#81CD33" transform="translate(0,0)"/>
<path d="" fill="#82CE2D" transform="translate(0,0)"/>
<path d="" fill="#85CD2F" transform="translate(0,0)"/>
<path d="" fill="#82CC35" transform="translate(0,0)"/>
<path d="" fill="#80CD31" transform="translate(0,0)"/>
<path d="" fill="#83CE32" transform="translate(0,0)"/>
<path d="" fill="#83CE31" transform="translate(0,0)"/>
<path d="" fill="#81CC2F" transform="translate(0,0)"/>
<path d="" fill="#82CD2C" transform="translate(0,0)"/>
<path d="" fill="#80CD28" transform="translate(0,0)"/>
<path d="" fill="#81CE2D" transform="translate(0,0)"/>
<path d="" fill="#85CE23" transform="translate(0,0)"/>
<path d="" fill="#80CD26" transform="translate(0,0)"/>
<path d="" fill="#87CC27" transform="translate(0,0)"/>
<path d="" fill="#86CE21" transform="translate(0,0)"/>
</svg>
