<svg width="40" height="40" viewBox="0 0 40 40" fill="none" xmlns="http://www.w3.org/2000/svg">
<path d="M18.8667 5H8.48333C5.16667 5 3.5 6.68333 3.5 10.0333V36.6667H12.5V30.4167C12.5 29.7333 13.0667 29.1667 13.75 29.1667C14.4333 29.1667 15 29.7167 15 30.4167V36.6667H23.8333V10.0333C23.8333 6.68333 22.1833 5 18.8667 5ZM17.9167 21.25H9.66667C8.98333 21.25 8.41667 20.6833 8.41667 20C8.41667 19.3167 8.98333 18.75 9.66667 18.75H17.9167C18.6 18.75 19.1667 19.3167 19.1667 20C19.1667 20.6833 18.6 21.25 17.9167 21.25ZM17.9167 15H9.66667C8.98333 15 8.41667 14.4333 8.41667 13.75C8.41667 13.0667 8.98333 12.5 9.66667 12.5H17.9167C18.6 12.5 19.1667 13.0667 19.1667 13.75C19.1667 14.4333 18.6 15 17.9167 15Z" fill="#131313"/>
<path d="M38.3332 35.4167H34.5498V30.4167C36.1332 29.9 37.2832 28.4167 37.2832 26.6667V23.3334C37.2832 21.15 35.4998 19.3667 33.3165 19.3667C31.1332 19.3667 29.3498 21.15 29.3498 23.3334V26.6667C29.3498 28.4 30.4832 29.8667 32.0332 30.4V35.4167H1.6665C0.983171 35.4167 0.416504 35.9834 0.416504 36.6667C0.416504 37.35 0.983171 37.9167 1.6665 37.9167H33.2165C33.2498 37.9167 33.2665 37.9334 33.2998 37.9334C33.3332 37.9334 33.3498 37.9167 33.3832 37.9167H38.3332C39.0165 37.9167 39.5832 37.35 39.5832 36.6667C39.5832 35.9834 39.0165 35.4167 38.3332 35.4167Z" fill="#131313"/>
</svg>
