<svg xmlns="http://www.w3.org/2000/svg" xmlns:xlink="http://www.w3.org/1999/xlink" viewBox="0,0,256,256" width="100px" height="100px"><defs><linearGradient x1="38.69196" y1="-6.79365" x2="3.53916" y2="28.38435" gradientUnits="userSpaceOnUse" id="color-1"><stop offset="0" stop-color="#047ed6"></stop><stop offset="1" stop-color="#50e6ff"></stop></linearGradient><linearGradient x1="44.20247" y1="23.9925" x2="22.6477" y2="23.9925" gradientUnits="userSpaceOnUse" id="color-2"><stop offset="0" stop-color="#ffda1c"></stop><stop offset="1" stop-color="#feb705"></stop></linearGradient><linearGradient x1="30.18656" y1="27.56257" x2="-5.20056" y2="62.95499" gradientUnits="userSpaceOnUse" id="color-3"><stop offset="0" stop-color="#d9414f"></stop><stop offset="1" stop-color="#8c193f"></stop></linearGradient><linearGradient x1="2.92526" y1="-6.83338" x2="18.7263" y2="8.97328" gradientUnits="userSpaceOnUse" id="color-4"><stop offset="0" stop-color="#33c481"></stop><stop offset="1" stop-color="#61e3a7"></stop></linearGradient></defs><g transform="translate(-25.6,-25.6) scale(1.2,1.2)"><g fill="none" fill-rule="evenodd" stroke="none" stroke-width="1" stroke-linecap="butt" stroke-linejoin="miter" stroke-miterlimit="10" stroke-dasharray="" stroke-dashoffset="0" font-family="none" font-weight="none" font-size="none" text-anchor="none" style="mix-blend-mode: normal"><g transform="scale(5.33333,5.33333)"><path d="M7.809,4.608c-0.45,0.483 -0.708,1.227 -0.708,2.194v34.384c0,0.967 0.258,1.711 0.725,2.177l0.122,0.103l19.266,-19.266v-0.433l-19.283,-19.262z" fill="url(#color-1)"></path><path d="M33.623,30.647l-6.426,-6.428v-0.45l6.428,-6.428l0.139,0.086l7.603,4.321c2.177,1.227 2.177,3.249 0,4.493l-7.603,4.321c-0.002,-0.001 -0.141,0.085 -0.141,0.085z" fill="url(#color-2)"></path><path d="M33.762,30.561l-6.565,-6.567l-19.388,19.388c0.708,0.761 1.9,0.847 3.232,0.103l22.721,-12.924" fill="url(#color-3)"></path><path d="M33.762,17.429l-22.721,-12.907c-1.33,-0.761 -2.524,-0.658 -3.232,0.103l19.386,19.369z" fill="url(#color-4)"></path></g></g></g></svg>